<svg version="1.1" xmlns="http://www.w3.org/2000/svg" xmlns:xlink="http://www.w3.org/1999/xlink" x="0px" y="0px" viewBox="0 0 128 128" style="enable-background:new 0 0 128 128;" xml:space="preserve"><g><path class="st0" fill="#FFFFFF" d="M121.5,16.5H36.3c-3.6,0-6.5,2.9-6.5,6.5v1.2h83.9c3.6,0,6.5,2.9,6.5,6.5c0,0,0,0,0,0.1v50.9h1.2
		c3.6,0,6.5-2.9,6.5-6.5V23C128,19.4,125.1,16.5,121.5,16.5z"/><path class="st1" fill="#7BD5FF" d="M106.4,31.6H21.3c-3.6,0-6.5,2.9-6.5,6.5v1.2h83.9c3.6,0,6.5,2.9,6.5,6.5v50.9h1.2c3.6,0,6.5-2.9,6.5-6.5V38.1
		C112.9,34.5,110,31.6,106.4,31.6z"/><path class="st0" fill="#FFFFFF" d="M91.7,46.3H6.5c-3.6,0-6.5,2.9-6.5,6.5V105c0,3.6,2.9,6.5,6.5,6.5h85.2c3.6,0,6.5-2.9,6.5-6.5V52.8
		C98.2,49.3,95.3,46.3,91.7,46.3z M26.3,104.3H7.2V71.6h19.1V104.3z M91,104.3H33.4V71.6H91V104.3z M91,64.5H7.2v-11H91V64.5z"/></g><g><path class="st1" fill="#7BD5FF" d="M26.3,104.3H7.2V71.6h19.1V104.3z"/></g></svg>
