<?xml version="1.0" encoding="utf-8"?>
<!-- Generator: Adobe Illustrator 24.1.2, SVG Export Plug-In . SVG Version: 6.00 Build 0)  -->
<svg version="1.1" id="CleverReach_Logo" xmlns="http://www.w3.org/2000/svg" xmlns:xlink="http://www.w3.org/1999/xlink" x="0px"
	 y="0px" viewBox="0 0 425.197 122.468" style="enable-background:new 0 0 425.197 122.468;" xml:space="preserve">
<style type="text/css">
	.st0{fill:#EC6702;}
	.st1{fill:#6F6F6F;}
	.st2{fill:#CECECE;}
	.st3{fill-rule:evenodd;clip-rule:evenodd;fill:#EC6702;}
</style>
<g>
	<g>
		<g>
			<path class="st0" d="M34.637,62.371c-3.841,1.062-7.807,1.598-11.792,1.594C12.245,63.965,0,58.61,0,43.565
				c0-13.842,9.685-20.736,22.788-20.736c4.009,0.108,7.982,0.799,11.792,2.051l-0.854,8.6c-3.153-1.819-6.728-2.782-10.369-2.791
				c-7.52,0-12.419,5.469-12.419,12.874c0,7.807,5.526,12.534,13.274,12.534c3.402-0.075,6.761-0.77,9.913-2.051L34.637,62.371z"/>
			<path class="st0" d="M39.519,20.555h10.255V63.28H39.519V20.555z"/>
			<path class="st0" d="M65.48,51.432c0.57,4.1,3.7,5.7,8.717,5.7c3.161-0.002,6.272-0.785,9.058-2.279v7.236
				c-3.478,1.3-7.169,1.937-10.882,1.879c-9.8,0-17.261-5.754-17.261-15.552s6.665-15.5,15.894-15.5c11,0,14.983,7.8,14.983,16.635
				v1.88L65.48,51.432z M76.76,45.621c0-3.419-1.595-6.209-5.7-6.209c-3.7,0-5.469,2.79-5.7,6.209H76.76z"/>
			<path class="st0" d="M86.934,33.601h11l6.152,21.135h0.115l6.21-21.135h10.2l-11,29.68H97.925L86.934,33.601z"/>
			<path class="st0" d="M131.518,51.432c0.569,4.1,3.7,5.7,8.716,5.7c3.161-0.002,6.272-0.785,9.058-2.279v7.236
				c-3.478,1.3-7.169,1.937-10.881,1.879c-9.8,0-17.262-5.754-17.262-15.552s6.666-15.5,15.894-15.5c11,0,14.983,7.8,14.983,16.635
				v1.88L131.518,51.432z M142.798,45.621c0-3.419-1.595-6.209-5.7-6.209c-3.7,0-5.469,2.79-5.7,6.209H142.798z"/>
			<path class="st0" d="M178.301,41.804c-1.135-0.286-2.307-0.402-3.476-0.343c-4.785,0-7.463,3.476-7.463,9.288V63.28h-10.254V33.6
				h9.343v5.468h0.114c1.766-3.759,4.33-6.152,8.773-6.152c1.166,0.02,2.328,0.135,3.475,0.343L178.301,41.804z"/>
		</g>
		<g>
			<path class="st1" d="M182.913,23.518h9.742c7.862,0,15.44,1.253,15.44,10.767c0,4.842-3.59,8.259-8.2,9.058v0.112
				c1.766,0.686,2.62,1.539,3.874,3.988l7.52,15.838h-6.5l-6.1-13.785c-1.766-3.875-3.646-3.875-6.665-3.875h-3.418V63.28h-5.7
				L182.913,23.518z M188.613,40.608h4.842c5.412,0,8.6-2.394,8.6-6.21c0-3.589-2.734-5.867-7.975-5.867h-5.469L188.613,40.608z"/>
			<path class="st1" d="M238.631,62.086c-2.89,1.269-6.017,1.909-9.174,1.879c-10.31,0-15.04-6.267-15.04-15.724
				c0-8.6,5.412-14.7,13.617-14.7c9.687,0,12.819,7.065,12.819,16.407h-20.737c-0.098,5.25,4.078,9.586,9.328,9.685
				c0.08,0.002,0.161,0.002,0.241,0.001c3.194-0.117,6.293-1.124,8.946-2.906L238.631,62.086z M235.155,45.962
				c0-4.442-2.621-8.089-7.235-8.089c-5.241,0-7.405,4.329-7.8,8.089H235.155z"/>
			<path class="st1" d="M248.452,36.28c2.881-1.769,6.191-2.715,9.571-2.735c8.317,0,11.678,4.1,11.678,12.021V57.58
				c-0.043,1.903,0.034,3.807,0.229,5.7h-5.014v-3.759h-0.113c-2.086,2.872-5.452,4.533-9,4.443c-6.267,0-10.654-2.734-10.654-9.058
				c0-7.292,7.974-9.572,13.5-9.572c2.109,0,3.587,0,5.7,0.114c0-5.012-1.822-7.576-7.177-7.576
				c-3.064,0.015-6.034,1.058-8.434,2.962L248.452,36.28z M264.346,49.44c-1.14,0-2.279-0.115-3.417-0.115
				c-2.906,0-10.085,0.457-10.085,5.584c0,3.076,2.964,4.729,5.414,4.729c5.3,0,8.088-3.306,8.088-7.634L264.346,49.44z"/>
			<path class="st1" d="M296.631,39.127c-1.838-0.789-3.811-1.215-5.81-1.254c-5.982,0-9.344,5.356-9.344,10.882
				c0,5.183,2.791,10.881,9.684,10.881c2.033-0.019,4.022-0.591,5.754-1.656l0.4,4.787c-2.132,0.868-4.423,1.277-6.723,1.2
				c-8.773,0-14.814-6.894-14.814-15.21c0-8.831,5.927-15.212,14.814-15.212c2.215,0.019,4.411,0.404,6.5,1.14L296.631,39.127z"/>
			<path class="st1" d="M302.505,20.555h5.352v17.832h0.115c2.044-3.146,5.592-4.986,9.342-4.844c7.52,0,10.881,4.671,10.881,12.478
				V63.28h-5.355V48.24c0-6.78-1.482-10.083-6.152-10.368c-6.1,0-8.831,4.9-8.831,11.962V63.28h-5.352V20.555z"/>
		</g>
		<g id="registered">
			<path class="st1" d="M332.447,20.555c0.735,0.001,1.458,0.189,2.1,0.547c0.666,0.36,1.215,0.905,1.58,1.568
				c0.761,1.315,0.766,2.935,0.011,4.254c-0.365,0.662-0.91,1.206-1.571,1.571c-1.312,0.752-2.923,0.752-4.235,0
				c-0.661-0.365-1.206-0.909-1.571-1.571c-0.756-1.318-0.752-2.94,0.011-4.254c0.365-0.663,0.913-1.208,1.579-1.568
				C330.992,20.745,331.714,20.557,332.447,20.555z M332.453,21.387c-0.589,0.001-1.168,0.152-1.682,0.439
				c-0.535,0.29-0.975,0.727-1.269,1.26c-0.613,1.058-0.618,2.363-0.011,3.425c0.294,0.532,0.732,0.97,1.263,1.265
				c1.052,0.607,2.348,0.607,3.4,0c0.531-0.295,0.968-0.734,1.263-1.265c0.61-1.061,0.607-2.367-0.008-3.425
				c-0.294-0.533-0.736-0.971-1.272-1.26C333.622,21.54,333.043,21.389,332.453,21.387z M330.527,27.087V22.57h0.915
				c0.859,0,1.34,0.004,1.444,0.011c0.246,0.011,0.486,0.072,0.707,0.18c0.177,0.104,0.323,0.253,0.422,0.433
				c0.114,0.196,0.173,0.42,0.17,0.647c0.006,0.309-0.109,0.609-0.32,0.835c-0.239,0.246-0.558,0.398-0.9,0.43
				c0.114,0.039,0.22,0.097,0.316,0.17c0.114,0.105,0.216,0.221,0.306,0.347c0.033,0.044,0.144,0.227,0.333,0.549l0.533,0.911
				h-1.128l-0.377-0.733c-0.152-0.346-0.367-0.661-0.633-0.93c-0.184-0.133-0.407-0.2-0.633-0.191h-0.239v1.851L330.527,27.087z
				 M331.442,24.522h0.372c0.33,0.016,0.661-0.005,0.986-0.061c0.121-0.037,0.226-0.112,0.3-0.214
				c0.074-0.101,0.113-0.222,0.111-0.347c0.002-0.12-0.036-0.238-0.108-0.335c-0.077-0.102-0.185-0.176-0.308-0.211
				c-0.324-0.058-0.654-0.08-0.983-0.064h-0.372L331.442,24.522z"/>
		</g>
	</g>
	<g>
		<path id="swoesh" class="st2" d="M375.678,65.041c-44.039,39.45-133.932,56.14-212.7,4.557
			c81.529,27.164,148.618,20.653,190.8-10.149C365.096,62.31,359.761,60.9,375.678,65.041z"/>
		<g>
			<path class="st3" d="M391.325,35.163c-0.2-0.748-3.357-12.005-3.357-12.005c-0.045-0.216-0.257-0.355-0.473-0.31
				c-0.057,0.012-0.11,0.036-0.157,0.07l-42.436,27.244c-0.656,0.421-0.577,0.6,0.175,0.394l42.962-11.676
				c1.25-0.209,2.376-0.882,3.153-1.884C391.487,36.429,391.535,35.766,391.325,35.163z"/>
			<path class="st3" d="M421.777,26.962l-0.561-0.083l-30.305-4.438c-0.181-0.052-0.371,0.052-0.424,0.234
				c-0.022,0.076-0.017,0.158,0.015,0.23c0,0,3.183,11.4,3.237,11.6c0.386,1.245,0.251,2.594-0.375,3.738
				c-0.8,1.4-2.369,2.43-4.667,3.057l-43.826,11.908c-0.452,0.122-0.45,0.316,0,0.43l42.247,10.64
				c3.6,0.909,7.973,0.019,9.639-1.937l28.251-33.173C425.739,28.305,424.272,27.327,421.777,26.962z"/>
		</g>
	</g>
</g>
</svg>
